<?xml version="1.0" standalone="no"?>
<!DOCTYPE svg PUBLIC "-//W3C//DTD SVG 20010904//EN"
 "http://www.w3.org/TR/2001/REC-SVG-20010904/DTD/svg10.dtd">
<svg version="1.0" xmlns="http://www.w3.org/2000/svg"
 width="200.000000pt" height="200.000000pt" viewBox="0 0 200.000000 200.000000"
 preserveAspectRatio="xMidYMid meet">

<g transform="translate(0.000000,200.000000) scale(0.100000,-0.100000)"
fill="#FF0000" stroke="none">
<path d="M230 1986 c-108 -30 -187 -110 -216 -221 -20 -73 -20 -1457 0 -1530
30 -113 108 -191 220 -221 75 -20 1457 -20 1532 0 112 30 190 108 220 221 20
73 20 1457 0 1530 -30 113 -108 191 -220 221 -71 19 -1468 19 -1536 0z m1026
-683 c68 -143 66 -137 44 -194 -10 -28 -18 -50 -16 -48 2 2 25 31 51 64 27 33
55 68 64 77 9 9 21 23 26 30 6 7 39 48 74 91 l63 78 46 -3 c76 -5 75 -23 -3
-119 -37 -46 -71 -86 -74 -89 -4 -3 -36 -43 -72 -90 l-66 -85 16 -35 c31 -70
122 -266 133 -288 18 -36 0 -56 -54 -60 l-46 -3 -68 139 -68 140 -40 -52 c-22
-28 -43 -53 -46 -56 -3 -3 -21 -25 -40 -50 -82 -106 -99 -120 -151 -120 -45 0
-59 10 -59 40 0 8 115 158 131 170 7 6 84 100 123 153 l28 37 -55 114 c-62
125 -102 168 -187 199 -58 21 -57 21 -64 -6 -9 -39 -59 -56 -176 -60 -197 -8
-252 -58 -286 -257 -27 -168 -12 -235 61 -257 44 -13 201 -17 208 -5 3 4 8 42
12 85 l7 78 -40 16 c-41 16 -81 71 -67 93 4 6 58 10 125 10 104 0 120 -2 129
-18 9 -17 -5 -129 -28 -222 -5 -19 -12 -57 -16 -85 -11 -83 -15 -85 -189 -85
-186 0 -228 12 -292 83 -54 60 -68 109 -59 202 14 153 52 275 110 358 24 34
106 90 158 108 45 15 91 18 330 18 l278 1 45 -97z"/>
</g>
</svg>